<svg height="150.898" width="255.385" xml:space="preserve" xmlns="http://www.w3.org/2000/svg"><defs><clipPath id="a" clipPathUnits="userSpaceOnUse"><path d="M0 283.46h283.46V0H0Z"/></clipPath></defs><path style="fill:#da291c;fill-opacity:1;fill-rule:nonzero;stroke:none;stroke-width:1.33333" d="m92.684 90.341 4.521.51-1.462-3.162h-3.059z"/><g clip-path="url(#a)" transform="matrix(1.33333 0 0 -1.33333 -17.796 284.998)"><path style="fill:#da291c;fill-opacity:1;fill-rule:nonzero;stroke:none" d="M0 0h-2.429v-3.932h1.967c1.04 0 1.754.164 2.139.492.386.327.578.819.578 1.474S2.063-.819 1.677-.491C1.292-.164.732 0 0 0" transform="translate(85.29 154.073)"/><path style="fill:#da291c;fill-opacity:1;fill-rule:nonzero;stroke:none" d="M0 0h-2.66v.528l-4.972.486L-7.131 0h-2.95l-.607 1.312-4.308.421V0h-2.659v1.993l-1.989.195.621-2.188h-2.641l-.628 2.446-4.569.447L-27.659 0h-2.64l.903 3.141-24.255 2.371 23.312-32.253L54.267-5.037 0 .268Z" transform="translate(97.856 142.316)"/><path style="fill:#da291c;fill-opacity:1;fill-rule:nonzero;stroke:none" d="m0 0-1.72-6.298 2.124-.24 1.329-.129L.039 0Z" transform="translate(73.243 153.572)"/><path style="fill:#da291c;fill-opacity:1;fill-rule:nonzero;stroke:none" d="M0 0c-.251.27-.537.469-.857.598-.322.128-.65.193-.984.193-.668 0-1.208-.219-1.619-.656-.411-.437-.61-1.021-.598-1.754-.012-.771.187-1.384.598-1.84.411-.457 1.009-.685 1.793-.685 1.118 0 1.953.527 2.506 1.581 0 .591-.077 1.098-.232 1.522C.453-.617.251-.27 0 0" transform="translate(159.065 159.566)"/><path style="fill:#da291c;fill-opacity:1;fill-rule:nonzero;stroke:none" d="M0 0c-.27-.983-.659-1.822-1.166-2.516a5.175 5.175 0 0 0-1.88-1.599c-.745-.373-1.587-.559-2.524-.559-.682 0-1.291.09-1.831.27a7.66 7.66 0 0 0-1.62.771l1.099 2.004A4.83 4.83 0 0 1-6.9-2.303c.385-.193.829-.29 1.33-.29.475 0 .922.11 1.34.328.417.219.78.52 1.088.906.309.385.556.835.743 1.349.185.514.285 1.067.298 1.658A4.274 4.274 0 0 0-3.518.79C-4.013.617-4.581.53-5.224.53c-.616 0-1.185.109-1.706.327a3.959 3.959 0 0 0-1.348.926 4.38 4.38 0 0 0-.897 1.426 4.926 4.926 0 0 0-.327 1.831c0 .732.125 1.381.375 1.947a4.128 4.128 0 0 0 1.041 1.436c.443.391.964.69 1.562.896a5.926 5.926 0 0 0 1.936.308 5.02 5.02 0 0 0 2.015-.395 4.282 4.282 0 0 0 1.58-1.175c.443-.521.787-1.18 1.031-1.976.244-.797.366-1.722.366-2.775C.404 2.084.27.983 0 0m-11.391-4.481h-6.803v1.927h2.158v9.599h-2.467v1.619a7.2 7.2 0 0 1 1.754.27c.526.154.95.385 1.272.693h1.947V-2.554h2.139zm-9.545-6.014h-9.425V3.421h9.213V1.185h-6.553V-2.13h4.761v-2.236h-4.761v-3.893h6.765zm-11.545 0h-8.712V3.421h2.659v-11.68h6.053zM-133.658-.661l40.716-4.598 2.503 8.699h3.315l2.741-9.666 2.579-.292v9.939h5.551c.783 0 1.458-.106 2.024-.318.565-.212 1.024-.504 1.378-.877.353-.373.617-.809.79-1.31.173-.502.26-1.041.26-1.62.013-.86-.196-1.612-.626-2.255-.431-.643-1.07-1.086-1.918-1.33l1.606-3.253 5.93-.669v9.416h-3.643V3.44h9.946V1.205h-3.643v-9.717l5.513-.622V3.421h2.659V-9.435l4.838-.546a4.688 4.688 0 0 0-1.3 1.153c-.971 1.24-1.456 3.004-1.456 5.291 0 2.287.485 4.051 1.456 5.291.969 1.24 2.348 1.86 4.134 1.86 1.336 0 2.396-.299 3.18-.896.784-.598 1.343-1.52 1.677-2.766l-2.409-.578c-.193.59-.498 1.072-.916 1.445-.418.372-.954.559-1.609.559-.887 0-1.584-.408-2.092-1.224-.507-.816-.761-2.047-.761-3.691-.038-3.276.938-4.915 2.93-4.915.295 0 .568.032.819.097.251.063.482.173.694.327.212.154.417.363.617.627.198.263.395.6.588 1.011l2.466-.655c-.411-1.208-1.057-2.117-1.937-2.727a4.933 4.933 0 0 0-1.607-.714l62.507-7.06 12.039 63.484z" transform="translate(162.005 152.811)"/></g></svg>