<svg width="517" height="280" viewBox="0 0 517 280" fill="none" xmlns="http://www.w3.org/2000/svg">
<path d="M78.559 254.454C83.5944 254.454 87.8992 253.504 91.4706 251.599C95.0413 249.697 97.6514 247.197 99.2998 244.097C100.947 240.999 101.772 237.458 101.772 233.474C101.772 227.1 99.918 221.988 96.2093 218.137C92.5007 214.287 86.6158 212.361 78.559 212.361H46.4184V254.454H78.559V254.454ZM80.7572 279.817H14.4151V186.865H80.3447C86.5707 186.865 92.1101 187.198 96.9642 187.861C101.817 188.526 106.717 189.853 111.661 191.845C116.606 193.837 120.727 196.493 124.023 199.813C127.32 203.132 129.998 207.626 132.059 213.29C134.119 218.956 135.149 225.64 135.149 233.341C135.149 240.246 134.05 246.444 131.852 251.931C129.655 257.421 126.771 261.87 123.199 265.276C119.628 268.685 115.415 271.517 110.563 273.775C105.708 276.032 100.832 277.605 95.9347 278.488C91.0348 279.375 85.9763 279.817 80.7572 279.817V279.817ZM203.827 279.817C189.45 279.817 177.455 278.445 167.84 275.7C158.226 272.957 151.585 268.22 147.925 261.492C145.267 256.446 143.482 250.184 142.568 242.703C141.651 235.223 141.194 223.959 141.194 208.908L141.331 186.6H175.12V228.295C175.12 230.951 175.257 233.32 175.532 235.399C175.807 237.48 176.515 239.76 177.661 242.238C178.805 244.717 180.385 246.775 182.4 248.412C184.413 250.051 187.252 251.423 190.916 252.529C194.577 253.637 198.904 254.189 203.896 254.189C208.886 254.189 213.189 253.637 216.807 252.529C220.424 251.423 223.171 250.072 225.048 248.479C226.924 246.885 228.413 244.827 229.512 242.304C230.611 239.782 231.274 237.503 231.504 235.465C231.731 233.43 231.847 231.04 231.847 228.295V186.6H265.636V208.908C265.727 223.959 265.315 235.223 264.4 242.703C263.484 250.184 261.698 256.446 259.044 261.492C257.121 265.034 254.395 268.021 250.871 270.455C247.345 272.891 243.111 274.77 238.166 276.098C233.221 277.427 228.001 278.379 222.507 278.953C217.014 279.53 210.785 279.817 203.827 279.817V279.817ZM305.194 248.877H375.107V279.817H273.19V186.6H305.194V248.877ZM440.763 279.817C426.386 279.817 414.391 278.445 404.776 275.7C395.162 272.957 388.522 268.22 384.861 261.492C382.203 256.446 380.418 250.184 379.504 242.703C378.587 235.223 378.13 223.959 378.13 208.908L378.267 186.6H412.056V228.295C412.056 230.951 412.193 233.32 412.468 235.399C412.743 237.48 413.451 239.76 414.597 242.238C415.741 244.717 417.321 246.775 419.336 248.412C421.349 250.051 424.188 251.423 427.852 252.529C431.513 253.637 435.84 254.189 440.832 254.189C445.822 254.189 450.125 253.637 453.743 252.529C457.36 251.423 460.107 250.072 461.984 248.479C463.86 246.885 465.349 244.827 466.449 242.304C467.547 239.782 468.21 237.503 468.44 235.465C468.667 233.43 468.783 231.04 468.783 228.295V186.6H502.572V208.908C502.663 223.959 502.251 235.223 501.337 242.703C500.42 250.184 498.634 256.446 495.98 261.492C494.057 265.034 491.331 268.021 487.807 270.455C484.281 272.891 480.047 274.77 475.102 276.098C470.157 277.427 464.938 278.379 459.444 278.953C453.95 279.53 447.721 279.817 440.763 279.817ZM64.9684 0C77.0555 0 87.4472 0.995881 96.1479 2.98766C104.846 4.97944 111.713 7.85741 116.751 11.6185C121.786 15.3826 125.45 19.742 127.739 24.6984C130.027 29.6573 131.173 35.4101 131.173 41.9607H98.3455C98.2533 41.5188 98.0922 40.9442 97.8646 40.2344C97.6351 39.5271 96.8344 38.3087 95.4607 36.583C94.0876 34.8568 92.3019 33.3087 90.1044 31.9352C87.9061 30.5641 84.5862 29.3251 80.1459 28.2171C75.7037 27.1115 70.5524 26.5575 64.6938 26.5575C59.4741 26.5575 54.9178 26.9557 51.0267 27.7522C47.1338 28.5492 44.0672 29.5682 41.8238 30.8065C39.5792 32.0473 37.7942 33.6178 36.4675 35.5205C35.1389 37.425 34.2461 39.284 33.789 41.0976C33.3294 42.913 33.1024 44.9278 33.1024 47.1396C33.1024 50.2388 33.604 52.9822 34.6135 55.3722C35.6198 57.7622 37.2681 59.9534 39.5579 61.9452C41.8458 63.937 45.0967 65.4638 49.31 66.5264C53.5209 67.5884 58.6503 68.12 64.6938 68.12C70.9198 68.12 76.3213 67.6781 80.9014 66.7919C85.4791 65.9081 88.8209 64.8456 90.9282 63.6048C93.0336 62.3665 94.7058 61.1051 95.9416 59.8207C97.178 58.5387 97.8859 57.4531 98.0709 56.5675L98.3455 55.2395H131.173C131.173 59.754 130.576 63.8497 129.388 67.5223C128.196 71.1967 126.091 74.759 123.069 78.2116C120.047 81.6642 116.132 84.5421 111.325 86.843C106.518 89.1458 100.268 90.9818 92.5766 92.3535C84.8847 93.727 75.957 94.4113 65.7923 94.4113C53.3384 94.4113 42.8991 93.5051 34.4762 91.6898C26.0501 89.8762 19.298 86.9982 14.2163 83.0583C9.13395 79.1202 5.49429 74.3608 3.2967 68.7837C1.09911 63.2066 0 56.3475 0 48.2016C0 39.438 1.39505 31.9351 4.1889 25.6943C6.9815 19.4535 11.1704 14.4528 16.7569 10.6893C22.3414 6.92757 29.0715 4.2054 36.9484 2.52275C44.8221 0.842528 54.1623 0 64.9684 0V0ZM198.202 94.0131C183.825 94.0131 171.83 92.6414 162.215 89.8968C152.601 87.154 145.96 82.417 142.299 75.6882C139.642 70.6427 137.856 64.3807 136.942 56.8991C136.026 49.4193 135.568 38.1554 135.568 23.1049L135.706 0.796467H169.495V42.4917C169.495 45.1472 169.632 47.5166 169.907 49.5957C170.182 51.6766 170.89 53.9569 172.036 56.4342C173.18 58.9133 174.76 60.9717 176.775 62.6089C178.788 64.2479 181.627 65.6196 185.29 66.7252C188.952 67.8332 193.278 68.3854 198.27 68.3854C203.261 68.3854 207.564 67.8332 211.182 66.7252C214.798 65.6196 217.545 64.2685 219.423 62.6756C221.299 61.0821 222.788 59.0236 223.887 56.5008C224.986 53.9781 225.649 51.6996 225.878 49.6617C226.106 47.6269 226.222 45.2369 226.222 42.4917V0.796467H260.011V23.1049C260.101 38.1554 259.689 49.4193 258.775 56.8991C257.859 64.3807 256.073 70.6427 253.418 75.6882C251.495 79.2305 248.77 82.2176 245.245 84.6518C241.719 87.0873 237.485 88.967 232.54 90.295C227.596 91.6231 222.376 92.5753 216.882 93.1499C211.388 93.7264 205.16 94.0131 198.202 94.0131V94.0131ZM346.681 68.2527C348.055 68.2527 349.199 67.8108 350.115 66.9246C351.03 66.0409 351.489 64.9559 351.489 63.6715C351.489 62.3895 351.03 61.3045 350.115 60.4183C349.199 59.534 348.055 59.0903 346.681 59.0903H299.706V68.2527H346.681ZM299.706 26.6902V35.5871H335.831C337.112 35.5871 338.187 35.1453 339.058 34.2591C339.927 33.3753 340.363 32.3128 340.363 31.072C340.363 29.8337 339.927 28.7941 339.058 27.9516C338.187 27.1115 337.112 26.6902 335.831 26.6902H299.706ZM380.334 67.8539C380.334 72.2823 379.852 76.0204 378.891 79.0747C377.93 82.1285 376.234 84.8307 373.809 87.1746C371.382 89.5216 367.971 91.2473 363.576 92.3535C359.18 93.4615 353.731 94.0131 347.231 94.0131H267.566V0.796467H336.243C342.743 0.796467 348.261 1.28441 352.794 2.25727C357.326 3.23255 360.943 4.75941 363.645 6.83847C366.344 8.91996 368.291 11.353 369.482 14.1419C370.671 16.9301 371.268 20.273 371.268 24.1675C371.268 32.5783 369.07 38.6409 364.675 42.359C366.606 42.895 368.438 43.7243 370.101 44.8157C371.793 45.9237 373.466 47.4281 375.114 49.3302C376.762 51.2353 378.043 53.7786 378.96 56.9657C379.874 60.1522 380.334 63.7836 380.334 67.8539V67.8539ZM436.373 51.5214H461.234L448.735 27.0884L436.373 51.5214V51.5214ZM473.733 1.06195L517 94.0137H479.914L472.635 78.3443H424.973L417.693 94.0137H380.882L424.012 1.06195H473.733V1.06195ZM61.7489 139.646C61.7489 116.125 53.5272 103.557 38.9729 103.557H36.1954V177.454H37.9735C52.3052 177.454 61.7489 163.491 61.7489 139.646V139.646ZM87.3024 139.539C87.3024 164.995 68.9705 179.172 39.6394 179.172H2.86534V177.454H11.7535V107.639L1.86529 101.839H41.084C70.3035 101.839 87.3024 115.05 87.3024 139.539ZM127.183 103.557V137.927C134.183 137.606 141.959 131.913 146.071 123.75H146.181V153.717H146.071C141.848 145.339 134.405 139.754 127.183 139.431V177.453C140.293 177.239 151.514 171.009 161.958 152.32H162.069V179.172H93.8525V177.453H102.741V107.639L92.8531 101.839H162.069V128.69H161.958C151.514 110.216 140.293 103.665 127.183 103.557V103.557ZM256.057 101.839L246.058 107.424V179.172H240.281L183.286 114.298L187.73 177.454H201.173V179.172H173.176V177.454H179.286L181.064 108.068L170.398 101.839H204.284L243.836 148.668L237.614 107.424L227.615 101.839H256.057ZM260.497 139.539C260.497 117.413 275.718 99.6908 301.938 99.6908C313.714 99.6908 323.047 102.161 331.157 106.243L322.492 137.606H322.269C308.937 115.05 297.605 104.417 288.605 104.417C283.162 104.417 278.829 108.821 278.829 118.273C278.829 137.176 293.939 164.887 313.048 179.065V151.891L303.049 143.943H336.379V171.439C328.38 177.668 317.826 181.32 305.937 181.32C277.718 181.32 260.497 163.491 260.497 139.539V139.539ZM384.261 155.328L370.596 124.18L360.152 155.328H384.261ZM425.702 177.454V179.172H384.817V177.454H393.927L385.15 157.261H359.597L352.82 177.454H364.263V179.172H339.71V177.454H344.265L379.595 99.6908H385.372L420.591 177.454H425.702V177.454ZM462.251 103.557V141.687C475.916 140.935 478.694 134.598 478.694 121.28C478.694 110.432 474.472 103.557 465.806 103.557H462.251V103.557ZM515.135 177.453V179.172H483.471L462.251 143.728V177.453H471.695V179.172H428.92V177.453H437.808V107.639L427.921 101.839H469.805C491.693 101.839 504.247 108.176 504.247 121.065C504.247 131.698 497.692 138.25 486.138 141.258L509.802 177.453H515.135V177.453Z" fill="#111111"/>
</svg>