<svg height="424.528" width="730.448" xml:space="preserve" xmlns="http://www.w3.org/2000/svg"><defs><clipPath id="a" clipPathUnits="userSpaceOnUse"><path d="M0 595.276h841.89V0H0Z"/></clipPath></defs><g clip-path="url(#a)" transform="matrix(1.33333 0 0 -1.33333 -204.966 625.262)"><path style="fill:#f9ed42;fill-opacity:1;fill-rule:nonzero;stroke:none" d="M0 0c.195-2.129 2.029-4.758 4.321-6.386.034-2.071.299-6.169 1.823-7.155 0 0-.081 3.76.67 5.887 1.742-.532 3.511-.304 4.895 1.214 2.702 2.962.308 7.834-2.018 10.289C6.789 5.952 3.58 7.653 1.454 5.933-.052 4.714-.407 2.672-.145.302A.473.473 0 0 0 0 0" transform="translate(171.566 447.308)"/><path style="fill:#d8e037;fill-opacity:1;fill-rule:nonzero;stroke:none" d="M0 0c3.688 1.33 7.636 3.545 10.329 6.644 2.785-.374 7.748-.724 10.117 1.054 0 0-4.212.542-7.783 2.62.491 2.969.828 5.877-.019 7.872-2.831 6.659-14.289 4.684-19.211 2.083-5.277-2.788-8.191-8.94-7.5-14.877.335-2.88 1.788-5.713 4.85-6.404C-6.189-1.691-2.877-1.038 0 0" transform="translate(192.914 418.672)"/><path style="fill:#79b955;fill-opacity:1;fill-rule:nonzero;stroke:none" d="M0 0c-.463-1.732-1.4-4.563-3.276-8.586 0 0 4.395 4.289 6.725 7.541C7.662-1.507 12.08.002 13.971 4.102c3.03 6.565-.304 15.614-7.679 17.623-7.933 2.162-11.016-10.136-9.915-15.776a9.368 9.368 0 0 1 1.32-3.325C-2.078 2.277.048.183 0 0" transform="translate(236.928 415.636)"/><path style="fill:#1baaa1;fill-opacity:1;fill-rule:nonzero;stroke:none" d="M0 0c-2.877-3.981-3.943-9.28-1.413-13.56 1.955-3.306 5.582-4.913 9.323-5.268l1.507-12.75 2.739 12.871c.11.017.22.028.329.047 5.365.916 9.224 4.507 9.637 10.124C22.613-1.827 16.316 6.73 8.98 5.775 5.459 5.317 2.2 3.043 0 0" transform="translate(209.682 420.196)"/><path style="fill:#bad542;fill-opacity:1;fill-rule:nonzero;stroke:none" d="M0 0c1.404-5.115 4.84-8.864 9.148-11.377-.76-3.708-2.384-10.957-3.923-13.442 0 0 4.898 4.65 9.271 11.068a31.327 31.327 0 0 1 3.854-.997c8.368-1.596 17.854-.779 25.453 3.28 6.635 3.543 11.887 9.592 14.5 16.642a29.01 29.01 0 0 1 1.473 5.657c1.403 9.129-6.208 18.556-14.243 21.962-2.417 1.025-5.319 1.745-7.95 1.853-8.205.335-16.231-1.062-23.235-5.541C4.656 22.907-3.328 12.117 0 0" transform="translate(224.385 377.382)"/><path style="fill:#fdbd6b;fill-opacity:1;fill-rule:nonzero;stroke:none" d="M0 0c4.305.502 7.992 2.592 9.444 6.872 1.149 3.386 1.425 7.336.082 10.721-1.308 3.298-3.955 5.51-7.2 6.454.307 3.552-.174 8.587-.174 8.587-.428-1.822-3.053-5.624-4.779-7.987-3.052.062-6.338-.209-9.09-1.121-1.945-.643-4.178-2.848-5.52-4.328-1.729-1.906-3.076-4.257-3.552-6.805-1.058-5.666 3.016-9.417 8.056-10.959C-8.751.216-4.162-.485 0 0" transform="translate(217.918 346.121)"/><path style="fill:#f6aacb;fill-opacity:1;fill-rule:nonzero;stroke:none" d="M0 0a13.122 13.122 0 0 1-5.14 3.798c-3.464 1.438-8.152 1.622-10.298-2.193-1.825-3.245-.783-7.236 1.533-10.427-.466-1.553-1.532-4.821-2.506-5.794 0 0 2.661 1.453 4.636 3.415-.108-.105 5.033-3.18 5.486-3.395 2.893-1.383 6.625-1.32 8.711 1.435C5.491-9.113 2.839-3.412 0 0" transform="translate(310.208 290.865)"/><path style="fill:#ee3c80;fill-opacity:1;fill-rule:nonzero;stroke:none" d="M0 0c-1.092 1.528-2.843 2.375-4.951 2.945-4.068 1.101-8.388 1.205-12.536.528-3.106-.505-6.152-1.455-8.966-2.869-4.517-2.268-8.148-5.905-9.529-10.895a21.036 21.036 0 0 1-.358-1.53c-2.503-1.003-6.304-2.408-7.97-2.408 0 0 3.457-1.456 7.642-2.045.179-2.941 1.251-5.725 3.957-7.258 7.516-4.257 18.018-2.002 24.625 2.928 3.448 2.575 6.231 6.023 7.888 9.991C.842-8.122 1.565-5.317 1.067-2.62.875-1.573.509-.714 0 0" transform="translate(298.332 313.274)"/><path style="fill:#b1e0e5;fill-opacity:1;fill-rule:nonzero;stroke:none" d="M0 0c1.714-.715 4.333-1.699 5.775-1.699 0 0-2.757 2.136-4.643 3.765.523 1.703.139 3.557-1.763 5.029a.394.394 0 0 0-.145.213c-2.391 1.126-5.536.518-7.619-1.003-2.982-2.177-3.233-6.428.269-8.405C-5.332-3.674-1.869-2.3 0 0" transform="translate(221.894 335.99)"/><path style="fill:#f38199;fill-opacity:1;fill-rule:nonzero;stroke:none" d="M0 0a7.826 7.826 0 0 1-.486-.311C-2.971-2.012-4.6-5.153-3.516-8.135c.497-1.37 1.805-3.232 3.088-3.98 3.55-2.07 8.197-1.224 11.228 1.295 2.067-.961 5.278-2.234 7.241-1.922 0 0-3.406 2.375-5.186 4.318.014-.015.876 2.172.924 2.408.36 1.795.318 3.924-1.158 5.183C9.279 2.017 3.726 2.198 0 0" transform="translate(273.33 332.484)"/><path style="fill:#3bade2;fill-opacity:1;fill-rule:nonzero;stroke:none" d="M0 0c-4.308 2.493-11.385.329-12.695-5.19-1.898-.205-5.064-.464-6.696-.138 0 0 2.419-1.339 6.513-2.557.467-5.054 5.463-8.678 10.774-6.927C3.78-12.872 5.812-3.366 0 0" transform="translate(283.115 365.166)"/><path style="fill:#008dcd;fill-opacity:1;fill-rule:nonzero;stroke:none" d="M0 0c2.479 2.786 3.91 6.432 4.384 10.088.502 3.873.375 8.408-2.043 11.657-2.874 3.862-8.345 5.515-12.847 6.486-7.787 1.678-18.835 1.51-23.611-6.125-5.349-8.553-1.514-19.77 7.262-24.137 4.252-2.115 9.099-3.026 13.837-2.713 2.047.135 4.34.429 6.52 1.047 1.924-2.098 5.657-6.32 6.135-7.991 0 0-.003 6.225-1.138 10.33A9.979 9.979 0 0 1 0 0" transform="translate(266.512 329.489)"/><path style="fill:#f27eb1;fill-opacity:1;fill-rule:nonzero;stroke:none" d="M0 0c-.092-.098-.169-.199-.254-.299-1.569.289-3.922.854-5.609 1.846 0 0 1.768-2.601 4.242-4.422-.198-.849-.174-1.699.106-2.499 1.803-5.124 8.483-7.112 11.363-1.829 1.208 2.213 1.611 5.305-.452 7.201C6.79 2.39 2.543 2.679 0 0" transform="translate(281.713 283.918)"/><path style="fill:#b2d344;fill-opacity:1;fill-rule:nonzero;stroke:none" d="M0 0s1.912.213 3.412.811C4.001.051 4.927-.475 6.253-.546 8.235-.652 9.803.937 9.84 2.918c.037 1.976-1.865 4.23-3.72 4.678-2.684.646-3.823-2.902-3.437-5.056C2.012 1.725.863.432 0 0" transform="translate(251.76 415.457)"/><path style="fill:#db3363;fill-opacity:1;fill-rule:nonzero;stroke:none" d="M0 0s2.693 1.301 4.349 2.424c.846-.679 1.958-.972 3.267-.572 1.444.439 2.572 1.501 2.999 2.958.433 1.478.114 3.006-.967 4.112-1.287 1.316-3.278 1.278-4.964.865-1.738-.429-2.246-2.203-2.097-3.805a5.82 5.82 0 0 1 .604-2.1C2.363 2.576.968.539 0 0" transform="translate(274.072 336.232)"/><path style="fill:#60b9de;fill-opacity:1;fill-rule:nonzero;stroke:none" d="M0 0c-1.324-.283-3.915.705-5.842 1.574-1.024 3.59-5.119 6.581-9.089 5.671-4.052-.927-6.5-5.994-5.45-9.87 1.395-5.151 9.901-4.776 13.011-1.617.897.912 1.417 1.914 1.641 2.936C-2.815-1.029 0 0 0 0" transform="translate(239.957 324.106)"/><path style="fill:#3cb879;fill-opacity:1;fill-rule:nonzero;stroke:none" d="M0 0s3.498 4.121 5.158 7.429a17.984 17.984 0 0 1 3.734-.153c3.391.219 7.366.867 9.623 3.71 2.314 2.914 2.794 7.195 2.447 10.796-.984 10.242-10.894 22.191-22.011 16.361C-8.834 34.06-12.663 21.45-6.754 14.5c1.832-2.155 4.78-4.673 7.392-5.8C.935 6.206 1.18 2.146 0 0" transform="translate(194.04 365.497)"/><path style="fill:#d8e037;fill-opacity:1;fill-rule:nonzero;stroke:none" d="M0 0s3.541 2.108 5.01 4.28c1.44.121 2.814.638 3.824 1.637 3.241 3.208-.195 8.227-4.197 8.369-2.602.092-5.393-1.188-6.465-3.661-1.244-2.877 1.25-5.323 3.938-6.073C1.732 2.969 1.02.626 0 0" transform="translate(183.408 400.178)"/><path style="fill:#47b754;fill-opacity:1;fill-rule:nonzero;stroke:none" d="M0 0c-.053.034-.096.082-.15.113-5.496 3.116-6.215-5.589-3.21-7.93 4.686-3.647 6.386 2.516 4.786 6.07C2.44.454 4.363 2.972 4.363 2.972 3.229 2.972 1.297 1.278 0 0" transform="translate(173.84 411.524)"/><path style="fill:#5a9b4c;fill-opacity:1;fill-rule:nonzero;stroke:none" d="M0 0c-1.618.597-3.641.08-5.008-1.309-1.759-1.786-2.04-5.304.532-6.587 1.799-.897 4.251-.493 5.747.846 1.495 1.339 1.755 3.026 1.177 4.716a.374.374 0 0 0-.302.245 4.542 4.542 0 0 1-.228.446c.944 1.973 1.738 5.62 1.738 5.62C3.047 2.846 1.071.972 0 0" transform="translate(202.065 417.786)"/><path style="fill:#00b2d9;fill-opacity:1;fill-rule:nonzero;stroke:none" d="M0 0c-4.896 4.038-14.791 4.459-20.01.769-1.702-1.204-3.334-2.866-4.419-4.775-1.793-.292-4.708-.444-7.417.877 0 0 2.766-3.161 6.161-4.615a7.712 7.712 0 0 1 .197-2.807c1.988-7.567 12.78-8.625 18.836-6.1C-.997-14.294 6.647-5.482 0 0" transform="translate(259.568 319.182)"/><path style="fill:#24864e;fill-opacity:1;fill-rule:nonzero;stroke:none" d="M0 0a24.482 24.482 0 0 1-4.796-3.012c-5.918 3.619-12.363 4.82-12.363 4.82 4.66-3.924 6.712-8.586 7.433-10.612a.176.176 0 0 0-.014-.023c-2.548-4.654-2.77-11.001-.091-15.696 2.187-3.83 5.875-6.414 9.929-7.998 8.27-3.232 17.944-3.981 26.766-3.71 4.068.125 9.019 1.296 12.161 3.998 2.795 2.402 4.298 5.962 4.991 9.511.391 2.006.687 4.19.653 6.237-.046 2.762-.239 5.592-1.527 8.086-1.264 2.444-3.185 4.607-5.442 6.182-2.748 1.92-5.984 3.343-9.235 4.144-1.877.463-3.814.713-5.737.881C15.053 3.478 7.104 3.356 0 0" transform="translate(619.768 414.78)"/><path style="fill:#bece3f;fill-opacity:1;fill-rule:nonzero;stroke:none" d="M0 0c-3.999 3.098-9.659 4.113-13.431.476-3.485-3.359-3.117-7.117-.942-10.191-1.656-2.264-4.34-5.678-5.835-6.211 0 0 3.288.509 8.517 3.417 5.357-4.236 14.014-5.451 16.099 1.682C5.592-6.766 3.397-2.632 0 0" transform="translate(681.828 395.975)"/><path style="fill:#6c965f;fill-opacity:1;fill-rule:nonzero;stroke:none" d="M0 0c5.645 2.694 13.797 4.303 13.797 4.303-4.62 1.65-11.853.906-16.009.261-3.714 5.461-10.229 8.173-17.172 8.081-3.616-.047-7.408-.846-9.81-3.79-2.526-3.096-3.755-7.573-3.952-11.514-.216-4.351.927-8.723 4.288-11.715 4.656-4.145 11.959-5.399 18-4.743 2.173.237 4.551.755 6.427 1.932 1.669 1.048 3.371 3.006 4.217 4.79C1.619-8.531 1.288-4.143.05-.141.034-.092.015-.048 0 0" transform="translate(625.513 369.278)"/><path style="fill:#f4bd47;fill-opacity:1;fill-rule:nonzero;stroke:none" d="M0 0c4.595-.643 7.982 4.649 6.769 8.785-.802 2.733-3.745 4.297-6.285 3.097-2.461-1.162-4.271-3.934-4.35-6.632a5.854 5.854 0 0 1 .671-2.869C-4.234 1.079-5.876-.769-6.919-.872c0 0 3.556.308 5.754 1.241C-.807.198-.425.06 0 0" transform="translate(609.041 440.42)"/><path style="fill:#f09d44;fill-opacity:1;fill-rule:nonzero;stroke:none" d="M0 0c.774-.21 1.458-.212 2.071-.072.651-1.75 1.383-4.057 1.197-5.178 0 0 1.436 3.721 1.315 7.027 1.156 1.672 1.693 4.102 1.818 6.002.162 2.495-1.244 5.639-3.571 6.707-2.019.927-3.426.082-4.398-1.425-1.294-2.009-1.815-5.198-1.973-6.947-.103-1.161.019-2.615.504-3.69C-2.522 1.282-1.201.327 0 0" transform="translate(594.328 438.977)"/><path style="fill:#e93439;fill-opacity:1;fill-rule:nonzero;stroke:none" d="M0 0c3.925-1.006 8.425-1.513 12.413-.575 2.791.657 5.761 1.729 8.263 3.367 2.505-.744 6.838-1.874 9.372-1.654 0 0-4.271 1.753-6.795 3.746.08.082.171.155.249.238.706.759 1.142 2.617 1.301 3.618.184 1.158.023 2.3-.547 3.33-1.276 2.299-3.983 3.638-6.356 4.495-4.656 1.682-10.409 2.285-15.292 1.441-3.551-.613-7.343-2.542-9.186-5.768C-9.813 6.58-5.521 1.418 0 0" transform="translate(606.35 419.654)"/><path style="fill:#d75f3c;fill-opacity:1;fill-rule:nonzero;stroke:none" d="M0 0c2.265-1.779 4.977-1.754 7.167-.479 1.059-1.294 2.983-3.354 5.126-4.211 0 0-1.842 3.513-2.748 6.397.127.175.249.353.362.541 2.787 4.62-.749 11.9-6.607 9.455C-1.16 9.842-4.77 3.749 0 0" transform="translate(584.655 424.998)"/><path style="fill:#2fb780;fill-opacity:1;fill-rule:nonzero;stroke:none" d="M0 0c1.079 2.624 2.699 7.263 2.034 10.149 0 0-2.664-5.191-5.405-7.279-.295.206-.587.401-.877.582-9.78 6.13-18.76-3.984-12.356-13.426 2.717-4.003 7.205-6.775 11.964-7.609 4.579-.801 9.212 1.73 9.645 6.536C5.36-7.099 2.995-3.063 0 0" transform="translate(565.974 394.637)"/><path style="fill:#ffd029;fill-opacity:1;fill-rule:nonzero;stroke:none" d="M0 0c-2.747 1.539-6.028 2.24-9.181 2.045-.718 2.181-2.152 5.684-4.302 7.19 0 0 .709-4.441.616-7.86C-14.18.96-15.415.364-16.509-.427c-5.955-4.304-7.068-14.677-.827-19.62 5.304-4.2 14.913-5.439 20.535-1.36 5.791 4.201 4.789 12.772.947 17.846C3.04-2.096 1.61-.905 0 0" transform="translate(560.31 373.561)"/><path style="fill:#e54d50;fill-opacity:1;fill-rule:nonzero;stroke:none" d="M0 0c-8.281 3.17-17.26 4.157-26.063 3.214-5.176-.557-11.098-1.788-15.858-3.954-6.722-3.058-12.263-8.143-15.684-14.706-4.734-9.082-6.4-23.139-.186-32.038-1.797-4.51-5.814-11.956-13.057-13.181 0 0 11.226-3.432 21.861 5.457 13.385-8.028 32.532-8.163 46.056-2.146 9.119 4.058 18.605 10.475 21.653 20.504 1.958 6.452 1.848 12.654.039 18.159C16.01-10.323 9.324-3.565 0 0" transform="translate(500.133 306.034)"/><path style="fill:#b13266;fill-opacity:1;fill-rule:nonzero;stroke:none" d="M0 0c-1.674 2.171-4.699 2.504-7.227 1.911C-12.3.719-15.521-4.033-15.358-9.181c.154-4.973 3.329-8.809 8.471-7.919 1.618.557 3.034 1.565 4.214 2.837 2.105-1.504 6.374-4.258 9.545-4.377 0 0-4.45 4.698-7.054 8.13a15.488 15.488 0 0 1 1.259 4.126C1.396-4.28 1.364-1.769 0 0" transform="translate(503.577 329.326)"/><path style="fill:#f38dba;fill-opacity:1;fill-rule:nonzero;stroke:none" d="M0 0c2.539-1.233 6.041-2.729 7.959-2.634 0 0-3.282 2.66-5.44 4.985 2.226 2.671 2.933 5.846.188 8.491-3.653 3.521-9.56 1.386-12.444-1.869-.103-.117-.203-.235-.305-.352-1.947-2.316-4.693-5.892-3.341-9.131C-11.527-4.96-4.664-3.489 0 0" transform="translate(476.944 315.422)"/><path style="fill:#8b4190;fill-opacity:1;fill-rule:nonzero;stroke:none" d="M0 0c-.844.133-1.614.071-2.303-.146-3.949-1.246-5.288-7.571-2.821-11.024 2.728-3.824 9.389-2.719 11.354 1.204.581 1.156.701 2.351.499 3.5 1.685 1.056 4.844 5.264 4.844 5.264-1.237-1.238-4.549-2.094-6.041-2.429C4.23-1.756 2.12-.339 0 0" transform="translate(520.415 310.657)"/><path style="fill:#ee3338;fill-opacity:1;fill-rule:nonzero;stroke:none" d="M0 0c.119.526.153 1.024.147 1.51 2.707.287 7.374 1.001 8.836 2.577 0 0-5.835.169-9.86.69-1.755 2.667-5.396 4.354-8.249 5.176-6.166 1.773-8.729-2.599-5.13-7.625.824-1.149 2.938-2.778 5.301-3.939C-5.249-3.433-.929-4.107 0 0" transform="translate(350.293 247.911)"/><path style="fill:#f04d44;fill-opacity:1;fill-rule:nonzero;stroke:none" d="M0 0c4.429 4.437-1.631 9.416-5.582 10.871-1.353.498-2.83.777-4.293.814-.936 2.364-2.184 5.812-2.083 7.138 0 0-1.637-4.414-1.731-7.679-2.776-.915-4.921-3.027-5.103-6.638a8.15 8.15 0 0 1 .027-1.188C-17.968-4.667-4.638-4.643 0 0" transform="translate(407.935 260.983)"/><path style="fill:#f1623b;fill-opacity:1;fill-rule:nonzero;stroke:none" d="M0 0c-6.512 1.93-17.975 2.231-20.942-5.417-.736-1.898-.819-3.812-.407-5.657.661-2.956 2.376-5.645 4.679-7.837-1.486-2.501-3.825-6.033-5.653-6.945 0 0 5.438 1.478 9.677 3.951 7.325-4.21 17.094-4.158 21.191 4.397C12.425-9.4 8.012-2.376 0 0" transform="translate(408.277 254.087)"/><path style="fill:#c1343e;fill-opacity:1;fill-rule:nonzero;stroke:none" d="M0 0c3.706-2.496 8.166-4.181 12.706-4.934.157-3.64.131-9.008-1.209-10.966 0 0 5.917 5.079 7.519 10.532.047.002.096-.002.144 0 3.849.166 7.925 1.118 10.202 4.545 2.28 3.431 3.042 8.396.633 12.003-4.463 6.679-13.373 8.974-20.979 8.335-3.917-.333-8.362-1.525-11.333-4.236-1.466-1.34-2.331-2.86-2.703-4.433C-5.967 6.831-3.692 2.486 0 0" transform="translate(402.104 278.73)"/><path style="fill:#ed2790;fill-opacity:1;fill-rule:nonzero;stroke:none" d="M0 0c-3.376 3.158-9.525 3.284-11.643-1.533-.822-1.868-.51-3.986.446-5.874-1.923-1.568-4.927-3.822-6.199-3.715 0 0 5.169-.1 8.526.664 1.192-1.088 2.592-1.881 3.998-2.153C1.864-13.911 4.351-4.072 0 0" transform="translate(432.614 266.191)"/><path style="fill:#d67583;fill-opacity:1;fill-rule:nonzero;stroke:none" d="M0 0c2.281.921 4.377 2.994 4.099 5.382 3.342 1.888 6.098 6.073 6.098 6.073-1.549-1.192-5.721-2.468-7.815-3.059-2.356 2.11-6.515 2.857-8.61.209C-9.554 4.403-5.224-2.105 0 0" transform="translate(439.46 293.735)"/><path style="fill:#a93792;fill-opacity:1;fill-rule:nonzero;stroke:none" d="M0 0c-1.022.24-2.047.425-3.074.574-1.669 3.191-4.114 8.587-3.124 11.223 0 0-3.328-4.892-2.837-10.882-6.384-.226-12.493-2.391-17.419-6.855-5.03-4.56-8.34-13.862-4.559-19.924 4.377-7.016 13.988-9.42 21.732-8.85 10.007.738 22.507 5.057 25.541 15.878C19.108-8.684 8.395-1.969 0 0" transform="translate(541.707 346.748)"/><path style="fill:#009856;fill-opacity:1;fill-rule:nonzero;stroke:none" d="M0 0c-2.844 1.464-6.919 1.762-10.265.775-2.049 1.707-4.361 4.575-4.361 4.575-.717-1.742.512-4.259 1.51-5.871-8.707-5.876 8.76-18.689 15.19-7.15C3.622-4.896 2.95-1.521 0 0" transform="translate(585.866 364.513)"/><path style="fill:#bac79b;fill-opacity:1;fill-rule:nonzero;stroke:none" d="M0 0c1.699-.684 3.944-1.299 5.796-1.234 4.543.161 8.684 2.416 11.615 5.758C20.331 2.858 24.995.582 28.689.582c0 0-5.527 4.423-8.376 8.47.299.674.57 1.362.781 2.069 2.216 7.4 1.033 16.822-5.63 21.576-2.351 1.677-5.178 3.011-8.066 3.37-3.597.446-7.836.391-11.007-1.582-5.295-3.294-6.786-9.601-6.794-15.471C-10.415 11.423-7.571 3.05 0 0" transform="translate(580.546 384.317)"/><path style="fill:#00a359;fill-opacity:1;fill-rule:nonzero;stroke:none" d="M0 0c.681 2.991.859 7.851.859 7.851-.222-2.005-3.821-4.93-6.039-6.557-3.165.553-6.376.591-9.531-.419-3.025-.968-6.046-2.995-6.902-6.257-.796-3.033.066-6.521 2.486-8.636 2.873-2.508 6.764-3.413 10.48-3.404 3.084.007 6.13.117 9.115.978 2.582.747 5.739 1.973 7.01 4.537.617 1.249.96 3.238.702 4.618C7.404-3.144 3.699-1.156 0 0" transform="translate(653.002 367.994)"/><path style="fill:#92bb44;fill-opacity:1;fill-rule:nonzero;stroke:none" d="M0 0a5.53 5.53 0 0 1 1.141 2.318C1.634 4.506.929 5.982-.327 6.819c-2.342 1.561-6.608.9-8.618-1.506-2.779-3.32.172-6.583 3.852-7.179a5.62 5.62 0 0 1 3.03.325c1.404-1.241 4.592-3.824 6.546-3.506 0 0-2.821 2.71-4.483 5.047" transform="translate(584.43 372.302)"/><path style="fill:#a58fbd;fill-opacity:1;fill-rule:nonzero;stroke:none" d="M0 0c4.435.845 5.989 6.197 6.637 10.127.689 4.183-2.439 10.727-7.619 7.611-4.024-2.42-7.77-13.965-3.155-17.076-.655-2.262-1.847-5.855-3.041-6.833 0 0 5.024 2.698 7.178 6.171" transform="translate(525.873 353.721)"/><path style="fill:#ee3880;fill-opacity:1;fill-rule:nonzero;stroke:none" d="M0 0c2.476-1.063 5.453-1.129 8.432-.229 5.519 1.668 7.94 7.91 7.727 13.16-.186 4.583-1.615 10.871-5.556 13.7-13.235 9.503-19.08-11.214-15.931-20.66a10.406 10.406 0 0 1 1.682-3.163c-.593-3.363-1.75-8.659-3.274-9.639 0 0 3.943 2.445 6.92 6.831" transform="translate(492.309 334.98)"/><path style="fill:#f89734;fill-opacity:1;fill-rule:nonzero;stroke:none" d="M0 0c-5.733 3.049-13.766 3.66-19.039 2.384-5.176-1.252-10.98-6.638-8.778-12.286 2.901-7.44 12.873-7.639 19.418-8.63 5.453-.826 14-.869 15.153 6.243.671 4.133-.688 7.343-3.16 9.731.754 2.582 2.199 6.615 4.388 8.906 0 0-3.797-1.549-7.982-6.348" transform="translate(377.163 245.486)"/><path style="fill:#373535;fill-opacity:1;fill-rule:nonzero;stroke:none" d="M0 0c3.545-.507 6.753-.732 9.679-.732 9.793 0 16.039 3.208 16.039 10.862 0 7.091-3.996 10.973-17.164 10.973-2.533 0-5.459-.113-8.722-.451C-.113 7.202 0 0 0 0m-2.42 22.565c4.052.451 7.541.62 10.636.62 15.87 0 19.697-5.515 19.697-12.999 0-8.724-6.641-12.945-18.458-13-2.871 0-6.022.225-9.455.674l.225-12.323s-.844 0-2.195-.057c0 0 0 13.619-.45 37.085" transform="translate(171.146 183.009)"/><path style="fill:#373535;fill-opacity:1;fill-rule:nonzero;stroke:none" d="M0 0c0 6.923-5.121 9.904-14.294 9.904-2.982 0-6.415-.338-10.242-.957.057-11.424.225-17.95.225-17.95C-11.592-11.029 0-10.018 0 0m-11.93-11.648c-3.658-.283-7.879-.057-12.381.562 0-1.97 0-7.484.226-15.025 0 0-1.126 0-2.195-.057 0 0-.114 13.169-.507 36.918 4.446.729 8.498 1.181 12.043 1.181 10.749 0 16.883-3.433 16.883-11.593 0-7.26-4.615-10.692-11.762-11.762 1.632-2.42 5.628-8.666 11.593-17.502 0 0-.9-.169-2.195-.45 0 0-4.896 7.542-11.705 17.728" transform="translate(237.385 195.22)"/><path style="fill:#373535;fill-opacity:1;fill-rule:nonzero;stroke:none" d="M0 0c0 12.832-7.203 19.753-15.307 19.753-9.567 0-15.532-7.879-15.532-20.034 0-11.256 6.584-18.289 15.419-18.289C-7.316-18.57 0-12.549 0 0m-32.978-.619c0 14.97 7.71 22.343 17.952 22.343 9.849 0 17.164-8.161 17.164-22.23 0-11.255-6.246-20.09-17.501-20.09-10.13 0-17.615 7.878-17.615 19.977" transform="translate(283.198 186.61)"/><path style="fill:#373535;fill-opacity:1;fill-rule:nonzero;stroke:none" d="M0 0c0 2.532.281 4.39.788 6.528 0 0 .675-.169 2.138-.338-.394-1.969-.619-3.939-.619-5.965 0-7.203 3.32-11.705 11.199-11.705 7.147 0 12.493 4.502 12.493 19.133 0 6.753-.731 12.887-2.195 19.866 0 0 .845.169 2.195.506 1.239-6.415 2.195-13.055 2.195-20.484 0-13.62-4.615-20.991-14.969-20.991C5.233-13.45 0-9.061 0 0" transform="translate(296.032 179.744)"/><path style="fill:#373535;fill-opacity:1;fill-rule:nonzero;stroke:none" d="M0 0s11.424.056 24.312.394c0 0 .055-.62.055-2.027 0 0-11.367-.111-22.172-.338 0 0 0-7.034.113-19.245 1.125 0 12.155-.056 19.921.057 0 0 0-.733.057-1.971 0 0-12.157.057-19.922.057.056-4.165.113-8.781.225-13.9 0 0 12.043-.169 22.511-.226 0 0 0-.788-.114-2.026 0 0-14.631.282-24.535.338C.451-38.887.337-22.68 0 0" transform="translate(338.297 206.757)"/><path style="fill:#373535;fill-opacity:1;fill-rule:nonzero;stroke:none" d="M0 0c-3.265-3.151-5.684-5.685-7.035-7.147.056-6.303.169-9.568.169-9.568-1.125 0-2.307-.056-2.307-.056.112 23.074-.056 36.355-.056 36.355 1.35-.113 2.138-.056 2.138-.056-.056-10.017 0-18.008.056-23.918C8.667 12.099 17.558 21.834 17.558 21.834c1.576-.225 2.477-.337 2.477-.337C8.892 9.68 2.983 3.151 1.463 1.52 11.255-8.555 21.61-18.853 21.61-18.853c-1.913-.281-2.645-.45-2.645-.45C8.385-8.272 2.026-2.026 0 0" transform="translate(385.29 185.653)"/><path style="fill:#c1343e;fill-opacity:1;fill-rule:nonzero;stroke:none" d="M0 0c8.451 0 13.892 3.185 13.892 11.924 0 7.004-4.167 11.577-13.255 11.577-1.215 0-2.432-.059-3.821-.232.116-14.644.348-23.153.348-23.153C-1.852.059-.926 0 0 0m-14.701 31.313c5.094.753 9.666 1.1 13.775 1.1 18.291 0 27.321-7.698 27.321-20.489 0-13.949-9.957-21.011-28.942-21.011-3.705 0-7.697.233-12.098.694.233 25.873-.056 39.706-.056 39.706" transform="translate(438.191 175.447)"/><path style="fill:#c1343e;fill-opacity:1;fill-rule:nonzero;stroke:none" d="M0 0s4.226 0 11.749.058c0 0 .116-19.275.289-40.228 0 0-5.614.058-11.807-.059 0 0 0 17.712-.231 40.229" transform="translate(475.756 207.34)"/><path style="fill:#c1343e;fill-opacity:1;fill-rule:nonzero;stroke:none" d="M0 0c2.314-.059 5.73-.059 10.707-.059-1.504 5.267-3.298 11.634-5.383 18.696C4.456 15.686 2.372 8.738 0 0m-3.126 25.234c9.146.174 18.06.232 18.06.232s6.192-19.447 12.848-41.904c0 0-7.408.114-12.503-.059l-2.256 8.162c-3.068.057-8.218.115-15.223.115-.521-1.968-1.042-3.935-1.504-5.904 0 0-7.293.175-12.039.116 0 0 5.151 16.612 12.617 39.242" transform="translate(513.088 182.394)"/><path style="fill:#c1343e;fill-opacity:1;fill-rule:nonzero;stroke:none" d="M0 0s3.589-.116 11.691 0c0 0-.116-7.061.233-30.213 12.617-.232 19.099-.174 19.099-.174-.116-6.135-.057-9.609-.057-9.609-19.042.348-30.618.29-30.618.29S.289-18.406 0 0" transform="translate(549.956 207.05)"/><path style="fill:#c1343e;fill-opacity:1;fill-rule:nonzero;stroke:none" d="M0 0c0 7.292-3.589 12.154-9.781 12.154-5.963 0-9.783-4.573-9.783-12.213 0-6.482 3.647-11.577 9.783-11.577C-4.167-11.636 0-7.525 0 0m-32.123-.059c-.232 13.602 8.912 21.589 22.399 21.589 13.602 0 22.4-7.871 22.343-21.53 0-13.545-9.609-21.012-22.343-20.953-13.197 0-22.284 7.64-22.399 20.894" transform="translate(619.934 186.91)"/><path style="fill:#c1343e;fill-opacity:1;fill-rule:nonzero;stroke:none" d="M0 0c0 12.445 8.276 21.3 22.399 21.3 11.114 0 19.101-5.208 20.779-15.047 0 0-5.614-.349-12.385-.812-.984 3.994-3.879 6.772-8.683 6.772-6.309 0-9.897-5.034-9.897-11.982 0-7.234 3.704-12.501 11.287-12.501 4.341 0 7.755 2.199 9.029 5.903L20.49-6.598s.115 2.547 0 8.162c0 0 8.45-.174 24.136-.174.348-14.934-8.74-23.094-22.052-23.094C9.377-21.704 0-13.485 0 0" transform="translate(641.927 187.255)"/></g></svg>